<svg width="16" height="16" viewBox="0 0 16 16" fill="none" xmlns="http://www.w3.org/2000/svg">
<path d="M14 14.3955H10.2335C10.1309 13.6433 10.1061 13.2468 10.1061 12.4603C10.1061 10.9557 10.2167 9.61351 10.439 8.43374C10.4718 8.27213 10.5056 8.11285 10.5407 7.95637C10.0767 8.52533 9.5823 9.09566 9.05398 9.66462C8.38714 10.3827 7.72035 11.0667 7.05352 11.7164L2.77003 15.9999L0 13.2299L4.28349 8.94643C4.95032 8.2796 5.64288 7.61281 6.36101 6.94598C6.93091 6.4168 7.49515 5.9196 8.05428 5.45502C7.89423 5.49094 7.73164 5.52741 7.56621 5.56098C6.38643 5.78324 5.04422 5.89385 3.5396 5.89385C2.75312 5.89385 2.35664 5.86905 1.60443 5.76648V2H14V14.3955Z" fill="#19CCB1"/>
</svg>
