<svg width="16" height="16" viewBox="0 0 16 16" fill="none" xmlns="http://www.w3.org/2000/svg">
<path d="M15 1.00113V14.3268H10.34C10.2675 13.7412 10.2604 13.3231 10.2604 12.7339C10.2604 11.0957 10.3868 9.64687 10.637 8.38744C10.1808 8.9237 9.70606 9.46215 9.20801 9.99842C8.43631 10.8482 7.68186 11.6358 6.94523 12.3617L3.31515 16L0 12.6807L3.63008 9.01531C4.36673 8.25401 5.14808 7.48419 5.97243 6.70518C6.5017 6.21545 7.03125 5.74353 7.56052 5.28879C6.31454 5.54038 4.88231 5.67003 3.26248 5.67004C2.67027 5.67004 2.27203 5.66399 1.68335 5.58971V1C6.15864 1 10.5247 1.00113 15 1.00113Z" fill="#19CCB1"/>
</svg>
